<svg id="visual" viewBox="0 0 900 600" width="900" height="600" xmlns="http://www.w3.org/2000/svg" xmlns:xlink="http://www.w3.org/1999/xlink" version="1.1"><g transform="translate(445.7645349088919 291.8588113079399)"><path d="M143 -218.4C186.5 -194.5 223.8 -156.9 244.1 -111.7C264.4 -66.5 267.8 -13.7 259.2 36.4C250.6 86.5 230 133.9 197.4 170.4C164.8 207 120.3 232.5 71.3 250.3C22.4 268 -31.1 277.9 -78.9 265.4C-126.6 252.8 -168.7 217.8 -198 176C-227.3 134.3 -243.8 85.9 -251.1 36C-258.4 -13.8 -256.6 -65.1 -239.3 -112C-222.1 -158.9 -189.4 -201.4 -147 -225.8C-104.5 -250.1 -52.3 -256.3 -1.3 -254.4C49.7 -252.4 99.5 -242.3 143 -218.4" fill="#d8d8d8"></path></g></svg>