<svg xmlns="http://www.w3.org/2000/svg" xmlns:xlink="http://www.w3.org/1999/xlink" viewBox="0 0 1366 768"><defs><style>.cls-1{fill:none;}.cls-2{clip-path:url(#clip-path);}.cls-3{fill:#fff;}.cls-4{fill:#2d8ab5;opacity:0.48;}.cls-5{fill:#d60b52;opacity:0.4;}.cls-6{fill:#98c6db;}</style><clipPath id="clip-path"><rect class="cls-1" x="-2" y="-2" width="1366" height="771"/></clipPath></defs><g id="Capa_3" data-name="Capa 3"><g class="cls-2"><path d="M697.5375,168.0067c11.2518-25.103,39.0423-1.4388,48.787-18.45,0,0-1.2221,13.3647-11.9454,18.45,49.8039-11.2659,31.9334,37.48,41.3666,68.9987,5.3823,7.3029,12.7712,4.2622,14.9306-7.7342,0,0,.9856,19.712-13.7984,18.7264,36.5088,15.3534-15.9793,67.0469-3.9451,90.6741.0028.0006,9.8587,12.8133,14.7867,1.9718,0,0,2.9568,18.7263-17.7407,12.8127,0,0-1.9712,14.7445-13.7984,18.2138v19.6331s-6.8991,10.4473-24.64,8.4761c0,0-5.9136,21.6831-16.7552,28.5823,27.2526,15.9437,47.4192,151.2614,87.718,173.4647-30.1814,33.9991-32.4836,13.04-52.4844,26.4891.0015.0037-26.3632,8.9924-33.2624,4.0644.0743,3.985-2.2551,51.5226-1.9707,65.0507,0-.0014,17.74,24.6384.9851,30.552-12.2919,1.0389-61.97,6.6051-31.54-27.5983.0007.0016-5.9129-44.35-3.9417-56.1773,0,0-13.7983,7.8848-24.64,6.8992a235.4255,235.4255,0,0,1,0,40.6065s0,11.63,2.9568,14.5868c0,0,10.8416,13.3647-2.9568,19.0023-.9489-1.34-97.7171,23.48-61.1083-12.3005,44.6966-18.5213,32.7078-17.925,27.1049-65.3459,0,.0012-13.7979-6.898-17.74-14.7827,0,0-8.7609-5.5588-17.686.1774,0,0-21.7378,3.765-22.7234-4.12,2.98-32.9752,13.6167-166.074,49.28-211.903-19.8882,2.7777-21.7182-37.3922-4.9307-68.0067.0028.0007-2.954-12.8121-11.8244-15.7689,30.1732-7.7444-10.1672-10.64,23.6534-33.5119,26.8491-22.787-47.143-39.7374,3.9433-91.6586,0,0-8.87-6.8992-3.9424-20.6975C638.8752,231.4021,652.5446,124.9705,697.5375,168.0067Z"/><path class="cls-3" d="M644.8082,221.3865a15.39,15.39,0,0,0-.6793,4.38,13.172,13.172,0,0,0,.6584,4.3155,12.4535,12.4535,0,0,0,.8556,1.9824,11.8416,11.8416,0,0,0,1.238,1.7511,13.8411,13.8411,0,0,0,3.2361,2.7687l.24.1618.0607.3245,0,.0008a40.33,40.33,0,0,0,5.8393,13.767,42.7878,42.7878,0,0,0,10.1721,10.9107,52.7828,52.7828,0,0,0,6.3133,4.0113,50.9818,50.9818,0,0,0,6.8592,3.0252,65.8185,65.8185,0,0,0,14.6652,3.37l-.1326-.01a72.8812,72.8812,0,0,0,11.4936-.77,67.6165,67.6165,0,0,0,11.2278-2.6045,39.088,39.088,0,0,0,10.2584-4.9852,28.8022,28.8022,0,0,0,4.3382-3.6707,28.26,28.26,0,0,0,3.4227-4.5527l.2307-.3816.3774.0145.0051,0a23.5643,23.5643,0,0,0,6.6664-1.0481,18.5352,18.5352,0,0,0,6.0388-3.0706,15.73,15.73,0,0,0,2.4388-2.3821,16.4429,16.4429,0,0,0,1.8367-2.8944,19.4038,19.4038,0,0,0,1.74-6.6731,19.57,19.57,0,0,1-1.4281,6.8154,16.8666,16.8666,0,0,1-1.741,3.0663,16.3315,16.3315,0,0,1-2.41,2.598,19.3876,19.3876,0,0,1-6.1476,3.5171,24.6588,24.6588,0,0,1-6.9915,1.445l-.0077,0,.6078-.3669a25.7249,25.7249,0,0,1-3.3,5.1047,30.7652,30.7652,0,0,1-4.4064,4.2105,41.0691,41.0691,0,0,1-10.6734,5.6968,60.0057,60.0057,0,0,1-11.6624,2.9427,75.4267,75.4267,0,0,1-12.0066.9436l-.0551,0-.0779-.01a68.7,68.7,0,0,1-15.2747-3.6631,49.242,49.242,0,0,1-13.7915-7.6325,43.3256,43.3256,0,0,1-13.8185-18.913,34.3217,34.3217,0,0,1-1.9693-7.64l0-.001.3.486a15.024,15.024,0,0,1-3.2891-3.2814,12.81,12.81,0,0,1-1.1886-1.9925,13.22,13.22,0,0,1-.75-2.18,13.693,13.693,0,0,1-.3416-4.5231A15.5564,15.5564,0,0,1,644.8082,221.3865Z"/><ellipse class="cls-3" cx="683.1634" cy="226.942" rx="10.8415" ry="3.9424" transform="translate(341.3405 860.4813) rotate(-80.0273)"/><ellipse class="cls-3" cx="705.5546" cy="229.2646" rx="10.8415" ry="3.9424" transform="translate(357.5664 884.4545) rotate(-80.0273)"/><path class="cls-3" d="M633.9265,223.8521a28.49,28.49,0,0,0,6.128-1.0369,21.4435,21.4435,0,0,0,5.6065-2.5762c3.4874-2.2223,6.17-5.4068,8.68-8.7633,1.28-1.6676,2.55-3.386,4.0269-4.996a24.7278,24.7278,0,0,1,5.0849-4.3088,19.78,19.78,0,0,1,6.2865-2.529,29.69,29.69,0,0,1,6.65-.5978l1.4132.8813a1.5822,1.5822,0,0,0-1.0987-.85,1.5244,1.5244,0,0,0-.1575-.0227c-.0674-.0054-.0866-.0052-.07-.0048l.0107,0,.0213.0006.0855.0029.1773.0069.3611.0107.7313.0092c.4892.0033.9805-.007,1.4713-.02.9818-.0264,1.9654-.0574,2.942-.1414a35.0887,35.0887,0,0,0,5.7754-.844,12.6308,12.6308,0,0,0,5.1291-2.35,6.45,6.45,0,0,0,2.3921-4.89l.9714-.0211a24.4672,24.4672,0,0,0,3.4614,10.03,20.9279,20.9279,0,0,0,7.5127,7.25,21.9186,21.9186,0,0,0,4.8423,2.02,27.4407,27.4407,0,0,0,5.1843.9936c.8808.0847,1.7617.1593,2.6513.163.889.0452,1.768.0113,2.6458-.0168l.6584-.0181.7893-.0079a8.2028,8.2028,0,0,1,1.6248.174,9.9577,9.9577,0,0,1,2.9082,1.2326c3.4669,2.2087,5.6758,5.2813,7.9522,8.1529,2.2577,2.8938,4.4372,5.7839,6.8628,8.4183a33.036,33.036,0,0,0,8.2082,6.7487,21.0022,21.0022,0,0,0,10.2455,2.6823l.0044.9856a38.0275,38.0275,0,0,1-5.5825-.53,25.39,25.39,0,0,1-5.37-1.7406,33.2089,33.2089,0,0,1-9.1528-6.5475,90.3851,90.3851,0,0,1-7.29-8.374c-1.143-1.4227-2.3-2.8129-3.4836-4.13a18.5036,18.5036,0,0,0-3.7864-3.4156,7.3632,7.3632,0,0,0-2.1052-.9476,5.6281,5.6281,0,0,0-1.0978-.1288l-1.2986-.01c-.9532-.0028-1.9054-.0037-2.8446-.085-.9426-.04-1.8829-.1526-2.8215-.2781a29.6666,29.6666,0,0,1-5.545-1.2766,23.9487,23.9487,0,0,1-5.1882-2.393,22.2923,22.2923,0,0,1-7.7889-8.1792,25.6388,25.6388,0,0,1-3.1672-10.73l.9714-.0212a10.3159,10.3159,0,0,1-.5138,3.2155,7.9837,7.9837,0,0,1-1.754,2.8167,15.1461,15.1461,0,0,1-5.483,3.5,28.0391,28.0391,0,0,1-6.1774,1.6033c-1.0476.1444-2.0969.2628-3.15.32-.527.0241-1.0539.0449-1.5832.0516l-.7964.0051-.4027-.0042-.2044-.0041-.1054-.0042-.0264-.0011-.0131-.0006-.0816-.0053c-.0542-.0048-.1108-.0123-.1693-.0232a1.768,1.768,0,0,1-1.1941-.855l1.4127.8812a22.44,22.44,0,0,0-11.39,2.3535c-3.4661,1.819-6.2261,4.9283-9.037,8.0664-2.8077,3.1308-5.8193,6.3679-9.6278,8.463a26.6677,26.6677,0,0,1-5.95,2.4426,43.0874,43.0874,0,0,1-6.2909,1.18Z"/><path class="cls-3" d="M683.2464,272.6374c-.0235,2.0721-.1323,4.1453-.3406,6.2145-.0974,1.0359-.2355,2.0685-.4,3.1013a8.9978,8.9978,0,0,1-1.03,3.1268,8.5167,8.5167,0,0,1-5.2964,3.9955,8.1256,8.1256,0,0,1-1.7094.2513l-1.5641.0442-3.1.0779c-4.1338.1235-8.2675.151-12.4012.2236l-6.2007.0428c-2.0432.0416-4.2142-.0589-6.0414.1392a16.1067,16.1067,0,0,0-10.0054,5.0731c-.6361.6811-1.2675,1.496-1.9014,2.3045q-.9435,1.209-1.8507,2.444c-1.2015,1.6515-2.3741,3.3227-3.474,5.0362-.5478.8578-1.08,1.7252-1.5808,2.6081-.5142.9013-1.0454,1.8149-1.6121,2.6934q-1.6914,2.6488-3.6125,5.1265c-2.5837,3.2965-5.4925,6.2445-8.3488,9.2409,2.4019-3.38,5.0529-6.5738,7.28-10.0092,1.13-1.7095,2.1952-3.4573,3.1683-5.2517.4851-.9009.9567-1.795,1.42-2.7147.4724-.9408.9759-1.8629,1.4954-2.7749,1.0351-1.8265,2.1593-3.5957,3.35-5.3152q.8881-1.293,1.8155-2.5563c.6169-.836,1.2233-1.68,1.97-2.5358a18.5356,18.5356,0,0,1,11.5769-6.03,27.6474,27.6474,0,0,1,3.2508-.11l3.1.0156,6.2007.0428c4.1337.0726,8.2674.1,12.4012.2236l3.1.0779,1.536.034a7.1,7.1,0,0,0,1.3634-.11,7.03,7.03,0,0,0,4.5575-2.9768,7.7947,7.7947,0,0,0,1.1308-2.6462c.2526-.9915.4677-1.9961.682-3.0034Q682.7893,275.7139,683.2464,272.6374Z"/><path class="cls-3" d="M676.0712,292.3493a25.8566,25.8566,0,0,0,9.5446,6.6135,23.1469,23.1469,0,0,0,5.4774,1.3682,22.7352,22.7352,0,0,0,5.6421.0523,41.3756,41.3756,0,0,0,11.1456-2.8844c3.6331-1.47,7.165-3.293,10.7681-5.15a42.3949,42.3949,0,0,1-9.7932,7.2408,31.9712,31.9712,0,0,1-11.8434,3.7352,22.0757,22.0757,0,0,1-12.351-2.2716A19.2667,19.2667,0,0,1,676.0712,292.3493Z"/><path class="cls-3" d="M645.2024,312.0612c-.2089,5.2339-.76,10.4413-1.46,15.6265-.6863,5.1886-1.6082,10.345-2.6922,15.4713-.5443,2.5621-1.1808,5.1067-1.8135,7.65-.73,2.5211-1.3765,5.0632-2.2565,7.5421a62.3174,62.3174,0,0,1-6.4634,14.324,102.8955,102.8955,0,0,0,4.991-14.7691c1.3592-5.01,2.55-10.0707,3.6165-15.1613C641.34,332.5782,643.1626,322.3249,645.2024,312.0612Z"/><path class="cls-3" d="M616.7187,391.4017a147.3616,147.3616,0,0,1,18.7661-2.32,186.9353,186.9353,0,0,1,18.9337-.2232,154.3362,154.3362,0,0,1,18.8527,1.8962,113.432,113.432,0,0,1,18.3528,4.5893c-3.1161-.5264-6.145-1.3439-9.2689-1.7288-1.55-.2388-3.0863-.5436-4.6412-.7389l-4.6595-.5988c-1.5476-.2286-3.1153-.3136-4.6691-.4917-1.5577-.1495-3.1108-.3349-4.6753-.411l-4.6815-.3415-4.6906-.2064c-6.2545-.2649-12.52-.31-18.7906-.2141-3.1343.0718-6.2716.1431-9.4085.2847C622.9964,390.9824,619.8641,391.2048,616.7187,391.4017Z"/><path class="cls-3" d="M616.7187,419.9839q9.34-1.6823,18.7-3.1159c6.2388-.9751,12.4861-1.8747,18.7283-2.8l18.7379-2.682c6.2414-.9231,12.4949-1.7611,18.7389-2.7762-6.08,1.7637-12.273,3.1142-18.4851,4.2933-3.1021.623-6.224,1.1188-9.338,1.6683l-9.3714,1.4462c-6.2583.8877-12.5255,1.7053-18.8113,2.3694Q626.1954,419.4244,616.7187,419.9839Z"/><path class="cls-3" d="M718.7278,321.9172c-.4917,4.9891-1.2909,9.935-2.2354,14.8517-.937,4.9193-2.075,9.8-3.38,14.6431a123.1887,123.1887,0,0,1-4.7708,14.29,53.161,53.161,0,0,1-3.3146,6.8035c-1.2987,2.1339-2.8039,4.3476-5.0254,5.5911a16.6427,16.6427,0,0,0,4.17-6.0446,71.078,71.078,0,0,0,2.7324-6.8978c.7893-2.35,1.5833-4.7,2.2657-7.09.7124-2.3794,1.4076-4.7661,2.0423-7.1718,1.3324-4.7936,2.5451-9.6259,3.7846-14.4567C716.22,331.6,717.434,326.7579,718.7278,321.9172Z"/><path class="cls-3" d="M711.2767,273.632a18.1908,18.1908,0,0,0-1.9369,3.4725,13.6,13.6,0,0,0-1.0573,3.7794,7.8511,7.8511,0,0,0,2.4523,6.932,12.4156,12.4156,0,0,0,3.1735,2.1359,21.5945,21.5945,0,0,0,3.6329,1.3814c2.5153.6824,5.1535,1.2988,7.7243,1.9513l7.7549,1.951c1.2986.346,2.5666.6214,3.89,1.0253A26.4292,26.4292,0,0,1,755.5984,316.55a36.9263,36.9263,0,0,1,.53,8.15l-.1642,15.9917q-.1932,15.9918-.7691,31.9836-.5747-15.9918-.769-31.9836L754.2616,324.7a36.3518,36.3518,0,0,0-.5506-7.7662,25.1771,25.1771,0,0,0-13.7189-17.5564,40.8029,40.8029,0,0,0-7.4116-2.4764l-7.7061-2.1349c-2.5741-.7411-5.1182-1.3839-7.717-2.2056a22.7937,22.7937,0,0,1-3.7692-1.6092,13.114,13.114,0,0,1-3.332-2.4555,8.5607,8.5607,0,0,1-2.1077-3.5851,8.97,8.97,0,0,1-.18-4.1016A15.8416,15.8416,0,0,1,711.2767,273.632Z"/><path class="cls-3" d="M602.4276,619.5669q1.053-13.7163,2.4-27.3936c.8687-9.122,1.8413-18.2316,2.7853-27.3435l2.9672-27.3186.7373-6.8293q.3909-3.4134.7244-6.8305c.5277-4.5533.9175-9.1083,1.2271-13.6855.1661,9.1777-.4771,18.3487-1.1572,27.4878-.687,9.1449-1.5954,18.267-2.54,27.3844-.9837,9.1133-2.04,18.2177-3.2216,27.3074Q604.6137,605.9836,602.4276,619.5669Z"/><path class="cls-3" d="M698.5231,626.9589q-3.1809-17.71-5.7784-35.5131-2.6458-17.794-4.8224-35.6556c-1.4244-11.91-2.7458-23.8356-3.7191-35.7984-.4894-5.9808-.8914-11.971-1.1272-17.9717-.0945-3.0013-.1721-6.0042-.1218-9.0094a42.2035,42.2035,0,0,1,.785-8.9631,48.2,48.2,0,0,0-.2627,8.9575c.0976,2.9895.3226,5.9764.5643,8.9595.4647,5.9683,1.0734,11.9267,1.6938,17.8833q1.9248,17.8648,4.1433,35.7044l4.3853,35.688Q696.4883,609.0828,698.5231,626.9589Z"/><path class="cls-3" d="M625.0963,648.1492a28.0367,28.0367,0,0,1,4.64.4938c1.517.2717,3.0159.6086,4.4939,1.0209,1.48.4055,2.9371.8918,4.3773,1.44a27.7329,27.7329,0,0,1,4.2293,1.9731,27.7293,27.7293,0,0,1-4.641-.491c-1.5167-.2729-3.0161-.608-4.4931-1.0237-1.4788-.4091-2.9367-.8935-4.3765-1.4431A28.0356,28.0356,0,0,1,625.0963,648.1492Z"/><path class="cls-3" d="M683.3647,648.1492a25.5738,25.5738,0,0,1,3.0914-3.206q1.644-1.4682,3.414-2.7641a43.483,43.483,0,0,1,3.6707-2.4126,25.3013,25.3013,0,0,1,3.9967-1.9661,25.2944,25.2944,0,0,1-3.09,3.2084,43.4987,43.4987,0,0,1-3.4158,2.7618q-1.77,1.2954-3.6724,2.41A25.5753,25.5753,0,0,1,683.3647,648.1492Z"/><path class="cls-3" d="M616.4625,391.6134a24.4483,24.4483,0,0,1-6.8392.581,16.9176,16.9176,0,0,1-6.8021-1.726,10.5166,10.5166,0,0,1-4.9741-5.2437,15.3582,15.3582,0,0,1-1.0017-7.12l.2138-1.7591.3381-1.7468a11.8916,11.8916,0,0,1,.5888-1.7425,17.6453,17.6453,0,0,1,.7471-1.6138A16.9871,16.9871,0,0,1,603.15,365.69a12.1534,12.1534,0,0,1,6.5352-2.6755,15.4929,15.4929,0,0,1,6.7777,1.2049,17.9354,17.9354,0,0,0-6.6478-.2458,11.7334,11.7334,0,0,0-5.6663,2.8863,16.6157,16.6157,0,0,0-3.7439,5.2139,15.8368,15.8368,0,0,0-1.1327,2.9681l-.2856,1.5975-.1769,1.62a13.8267,13.8267,0,0,0,.7543,6.2459,9.4817,9.4817,0,0,0,1.5909,2.634,11.16,11.16,0,0,0,2.4148,1.9918,17.4714,17.4714,0,0,0,6.16,2.1066A32.3122,32.3122,0,0,0,616.4625,391.6134Z"/><path class="cls-3" d="M700.94,412.428a32.3111,32.3111,0,0,0,6.4942,1.8172,17.47,17.47,0,0,0,6.51-.0058,11.1586,11.1586,0,0,0,2.9284-1.106,9.4822,9.4822,0,0,0,2.3559-1.98,13.8275,13.8275,0,0,0,2.73-5.6683l.3555-1.5906.2452-1.6043a15.8368,15.8368,0,0,0-.1142-3.1748,16.6165,16.6165,0,0,0-1.8608-6.1431,11.734,11.734,0,0,0-4.4317-4.5606,17.9362,17.9362,0,0,0-6.3714-1.9128,15.4927,15.4927,0,0,1,6.8038,1.047,12.1523,12.1523,0,0,1,5.3221,4.6413,16.9863,16.9863,0,0,1,2.3881,6.6811,17.65,17.65,0,0,1,.1863,1.7685,11.89,11.89,0,0,1-.0051,1.8393l-.2437,1.7624-.3653,1.734a15.3569,15.3569,0,0,1-3.246,6.4158,10.5158,10.5158,0,0,1-6.4,3.3579,16.9147,16.9147,0,0,1-6.9952-.5616A24.4483,24.4483,0,0,1,700.94,412.428Z"/><path class="cls-3" d="M622.6323,366.7618a4.7558,4.7558,0,0,1-.47-2.3917,5.0348,5.0348,0,0,1,.7259-2.4149,3.6588,3.6588,0,0,1,2.1751-1.67,2.927,2.927,0,0,1,2.4972.563,6.7473,6.7473,0,0,0-1.9055.87,4.7783,4.7783,0,0,0-1.0892,1.2711,15.5989,15.5989,0,0,0-.8995,1.7328C623.3587,365.359,623.06,366.031,622.6323,366.7618Z"/><path class="cls-3" d="M705.3829,387.2315c-.4275-.7308-.7264-1.4028-1.0339-2.04a15.5989,15.5989,0,0,0-.9-1.7328,4.7762,4.7762,0,0,0-1.0891-1.2711,6.7514,6.7514,0,0,0-1.9055-.87,2.927,2.927,0,0,1,2.4971-.563,3.6593,3.6593,0,0,1,2.1752,1.67,5.0348,5.0348,0,0,1,.7259,2.4149A4.7567,4.7567,0,0,1,705.3829,387.2315Z"/><path class="cls-4" d="M1351.5,190h131a26.5,26.5,0,0,0,26.5-26.5v0a26.5,26.5,0,0,0-26.5-26.5h-55.67a17.941,17.941,0,0,1-17.831-18.2842q.0009-.1078.0009-.2158v0A26.5,26.5,0,0,0,1382.5,92h-335a26.5,26.5,0,0,0-26.5,26.5v0a26.5,26.5,0,0,0,26.5,26.5h55.67a17.941,17.941,0,0,1,17.831,18.2842q-.0009.1077-.0009.2157v0a26.5,26.5,0,0,0,26.5,26.5Z"/><path class="cls-4" d="M-56.2489,379.9442A8.3093,8.3093,0,0,1-48,388.4086l0,.0913v0A21.5,21.5,0,0,0-26.5,410h236A21.5,21.5,0,0,0,231,388.5v0A21.5,21.5,0,0,0,209.5,367H-5.523a14.5741,14.5741,0,0,1-14.4777-14.8345q0-.0827,0-.1655v0a28,28,0,0,0-28-28h-93a28,28,0,0,0-28,28v0a28,28,0,0,0,28,28Z"/><path class="cls-5" d="M1524.5,436h-143a22.5,22.5,0,0,0-22.5,22.5v0q0,.0761.0005.1519A13.0822,13.0822,0,0,1,1346.0171,472H1143.5a30.5,30.5,0,0,0-30.5,30.5v0a30.5,30.5,0,0,0,30.5,30.5h293a30.5,30.5,0,0,0,30.5-30.5v0q0-.1259-.001-.2514A20.8826,20.8826,0,0,1,1487.7733,481H1524.5a22.5,22.5,0,0,0,22.5-22.5v0A22.5,22.5,0,0,0,1524.5,436Z"/><path class="cls-5" d="M528.5,16h-143A22.5,22.5,0,0,0,363,38.5v0q0,.076,0,.1519A13.0822,13.0822,0,0,1,350.0171,52H147.5A30.5,30.5,0,0,0,117,82.5v0A30.5,30.5,0,0,0,147.5,113h293A30.5,30.5,0,0,0,471,82.5v0q0-.1258-.001-.2514A20.8826,20.8826,0,0,1,491.7733,61H528.5A22.5,22.5,0,0,0,551,38.5v0A22.5,22.5,0,0,0,528.5,16Z"/><path class="cls-5" d="M194.5,175h131A26.5,26.5,0,0,0,352,148.5v0A26.5,26.5,0,0,0,325.5,122H269.83a17.941,17.941,0,0,1-17.831-18.2842Q252,103.608,252,103.5v0A26.5,26.5,0,0,0,225.5,77h-335A26.5,26.5,0,0,0-136,103.5v0A26.5,26.5,0,0,0-109.5,130h55.67a17.941,17.941,0,0,1,17.831,18.2842Q-36,148.3919-36,148.5v0A26.5,26.5,0,0,0-9.5,175Z"/><path class="cls-6" d="M1305.7778,721.1827c2.8122,1.9313,7.8665.4651,11.9168.7724,2.6233.1991,3.6819-.721,4.16-3.2864,2.5362-13.5988,5.2256-27.1691,7.862-40.7493q-.2082-.1787-.4162-.3576c-5.719,13.6335-11.438,27.2669-17.3516,41.3638-2.853-5.626-4.25-11.7724-10.1366-14.9111-.756,2.2949.5141,4.0222.9254,5.87C1303.6091,713.7949,1302.9836,719.2637,1305.7778,721.1827Z"/><path class="cls-6" d="M1296.8582,725.1424a4.46,4.46,0,0,1-.9274-4.1547,9.3239,9.3239,0,0,0,1.4961-.0973,9.2037,9.2037,0,0,1,2.4446-.0015c3.4547.453,4.253-.6221,2.9163-3.99-4.8606-12.2442-10.9648-23.7275-19.393-33.8426q.6247-4.7861,1.2492-9.5721a40.1909,40.1909,0,0,0-4.0238,6.3891,40.4172,40.4172,0,0,0-11.7381-9.3329c1.2036,2.1327,2.2031,3.9039,3.1369,5.5588a1.996,1.996,0,0,0-.5712.7172c-2.4349,5.2794-5.0307,10.4993-6.4844,16.1454.011-2.183-.0523-4.4265-.254-6.7785-2.8682,5.6622-3.6359,11.2748-5.8765,16.1795q-5.4314-11.5981-10.8417-23.2063-3.2663-7.0052-6.5124-14.0194l-.8786.3169q.1063.7407.2129,1.4814l-1.0908-.1467q-1.96,6.8943-3.9193,13.7887c-4.4582-2.5846-7.0885-7.619-12.7483-9.5753,3.3888,6.2489,6.5148,12.013,9.6409,17.7771a80.2818,80.2818,0,0,1-5.9825,16.9547c-2.0759-.32-1.068-2.6947-2.4856-3.3507-2.2194-9.9159-3.9342-19.9314-5.5571-29.9859-.2994,5.4535-.5758,10.9013-.7588,16.3466l-5.6213,12.8182c-1.2215-5.4136-2.0293-9.6872-3.1975-13.86a6.9364,6.9364,0,0,1,.5046-5.1291,60.2792,60.2792,0,0,0,5.9744-11.1485c-4.1441,1.276-6.1177,4.5027-9.15,6.1861-.2751-.8313-.3562-1.798-1.6613-2.1412.1838,1.3431.3535,2.5827.5233,3.8222-7.7791,9.783-11.7982,21.4089-16.1156,33.3824-1.2752-2.1544-2.3347-3.9448-3.3944-5.7352q-1.3875-13.1669-2.7746-26.3336a64.41,64.41,0,0,0,7.1021-9.6593c-3.2924.9716-5.2388,2.63-7.3394,4.0055-2.655-1.2049-1.6521,1.9451-2.89,2.4277-9.581,7.3108-16.3368,16.8461-21.6587,27.5106q-.5034-.4765-1.007-.9531a152.7531,152.7531,0,0,0,5.703-34.3608c-6.6406,11.3533-11.7348,23.4122-17.1787,35.2067-1.8325-.4032-1.8052-2.7558-4.0087-2.9182.63,2.349,1.164,4.341,1.6982,6.3329a22.4206,22.4206,0,0,1-4.47,12.4194c-.9552-1.4542-.7565-3.6285-2.6725-4.8388-1.3013,5.9719-1.598,8.383.5613,9.3642h-7.1209c-.4465-.6757-.9093-1.3425-1.3981-1.9952-.979-1.3074-.65-2.7911-.753-4.2243q1.0386-7.9579,2.0771-15.916a42.3559,42.3559,0,0,0-5.7651,10.2291c-1.0559,2.62-2.1789,3.7193-5.2576.8892,3.83,4.2617,1.1529,7.4505-.0493,10.8852-.0156.0445-.034.0877-.05.132h-8.61a77.9565,77.9565,0,0,0-.2027-9.4364,56.01,56.01,0,0,0-3.4921,9.4364h-7.4048q-1.7483-4.5279-3.6217-9.0055c-1.2726-8.0171-2.881-16.0743-5.0839-24.5788-.9106,10.615-1.7451,20.3413-2.58,30.0677-1.3552-4.7667.0657-9.6794-1.505-14.3567-.0008-3.5951-.02-7.19-.02-10.7856l-1.04-.14a286.004,286.004,0,0,0-5.944-29.5458l11.2948-21.6871c-6.163,2.9015-9.7889,7.3224-14.1962,10.7165-.492-1.3842-.5787-2.9806-2.213-4.4948v8.4262c-8.9212,9.4885-13.5542,21.3965-17.0727,33.4436a51.08,51.08,0,0,0-1.8649,11.2157,21.3913,21.3913,0,0,1-3.545,2.7152c-.2751-.8313-.3562-1.798-1.6613-2.1413.1838,1.3432.3535,2.5827.5233,3.8222a73.6935,73.6935,0,0,0-9.5556,16.3283h-11.1471q-.791-7.5073-1.5819-15.0147a64.3985,64.3985,0,0,0,7.1021-9.6592c-3.2924.9716-5.2388,2.63-7.3394,4.0054-2.655-1.2047-1.6521,1.9451-2.89,2.4278a65.5861,65.5861,0,0,0-11.0759,10.7894c2.2568-11.9332,4.6063-23.8492,6.9208-35.7717q-.2082-.1787-.4162-.3576l-14.0524,33.4992a156.3268,156.3268,0,0,0,1.6611-15.9626c-3.0968,5.2944-5.8508,10.7447-8.4673,16.2477a15.822,15.822,0,0,0-6.63-7.3316c-.7559,2.2949.514,4.0222.9255,5.87.7078,3.1779.4274,7.3849,1.7972,9.88-.2093.46-.42.9188-.6289,1.3784H994.23c.3268-.6549.1668-1.7086-.4423-3.243-5.2155-13.1382-11.86-25.4019-21.2741-36.0375a42.0074,42.0074,0,0,0-12.6316-10.321c1.8011,3.1916,3.1488,5.58,4.4966,7.968l-.0782-.0741c-.0084.0322-.0158.0645-.0242.0967.0266-.0056.0524-.0123.0792-.0175a118.3416,118.3416,0,0,1,18.1394,37.988,6.9054,6.9054,0,0,0,1.8931,3.64H967.88c-.9488-2.0172-1.6491-3.4194-2.2408-4.8618-1.704-4.1535-4.898-7.6519-5.4176-12.3238,1.5157-8.1145,1.9523-16.4085,4.0546-24.4253a2.36,2.36,0,0,0-1.8285,1.2854c-2.8594,6.2-5.9559,12.3122-7.1437,19.1365.0131.0009.0241.0045.0371.0056a27.7821,27.7821,0,0,0-2.9687,10.5959c-1.1321-.5548-1.3835-1.72-1.8518-2.7193q-5.7778-12.3331-11.5294-24.6786-3.2664-7.0052-6.5126-14.0194l-.8785.3169q1.2071,8.399,2.414,16.7978-4.0785,9.2918-8.1568,18.5838c-1.9251,3.5646-5.2625,5.89-7.8127,8.9066-1.8678-.5357-1.6214-2.21-1.95-3.589-2.6539-11.1444-4.5957-22.4256-6.4246-33.7559-.7895,14.38-1.4265,28.7212-.5815,43.0811a3.461,3.461,0,0,0,.4126,1.6635H906.13c.2032-.0872.4072-.1756.6214-.283-7.5765-2.3872-10.9845-7.8557-13.875-13.6692a22.5229,22.5229,0,0,1,3.6715-4.184c-2.295-.073-3.4354,1.2294-4.724,2.024-.9471-1.9682-1.8866-3.9374-2.9568-5.8036l-1.1953.4188q0,.2633,0,.5264a55.7124,55.7124,0,0,0-5.99-10.5152c-.9789-1.3074-.65-2.791-.753-4.2242q1.0388-7.9581,2.0772-15.9161a42.3531,42.3531,0,0,0-5.7651,10.2292c-1.056,2.62-2.1789,3.7192-5.2576.8892,3.83,4.2616,1.1529,7.45-.0493,10.8851-1.48,4.2285-4.7206,7.6735-5.2191,12.3386-.1714,1.6034-.7867,3.4188-3.1388,1.9456q-.552-1.3671-1.1037-2.734c.5534-6.6,1.2558-13.1981.5989-20.8546-3.4292,6.77-3.8474,13.4728-7.3821,18.9741-3.2154-9.3107-6.9556-18.4117-10.9473-27.4123-.4914-1.1859-.4544-2.6579-1.8956-3.4147.2668,1.8229-.5422,3.7593.9127,5.3362q2.6854,16.6476,5.3709,33.2951l-1.2451,1.72c-.1558-1.0986-1.6338-.9182-1.9691-1.8433a47.3427,47.3427,0,0,0-5.1638-19.5685,13.5217,13.5217,0,0,1-1.422-7.0161c.1032-6.43.0346-12.862.0346-19.2933l-1.28-.1721q-1.96,6.8945-3.9193,13.7887c-4.4582-2.5845-7.0885-7.619-12.7483-9.5753,3.3888,6.2489,6.5148,12.013,9.6408,17.7771a80.2813,80.2813,0,0,1-5.9823,16.9547c-2.3827-.3667-.7-3.4434-3.289-3.5181-.5532,3.2942-1.52,6.454-4.34,8.6222-2.96-.4761-1.7608-2.4885-1.4763-4.1034,1.3128-7.4516,2.8874-14.87,2.3462-22.6471l-7.6634,17.4746c-1.2215-5.4135-2.0294-9.6873-3.1975-13.86a6.9359,6.9359,0,0,1,.5047-5.1291,60.2729,60.2729,0,0,0,5.9742-11.1485c-4.1439,1.276-6.1176,4.5027-9.15,6.1861-.2752-.8313-.3562-1.798-1.6615-2.1413.1839,1.3432.3537,2.5828.5234,3.8223-7.779,9.783-11.7981,21.4089-16.1156,33.3824l-3.3945-5.7352q-1.3872-13.1669-2.7745-26.3336a64.4119,64.4119,0,0,0,7.1022-9.6593c-3.2924.9716-5.2389,2.63-7.34,4.0055-2.655-1.2048-1.652,1.9451-2.89,2.4277-9.581,7.3108-16.3368,16.8461-21.6587,27.5107q-.5032-.4767-1.0069-.9532a152.7644,152.7644,0,0,0,5.703-34.3608c-6.6407,11.3533-11.735,23.4122-17.1788,35.2067-1.8325-.4032-1.8051-2.7558-4.0086-2.9181l1.698,6.3328a22.42,22.42,0,0,1-4.47,12.4194c-.7156-1.0893-.784-2.5826-1.5784-3.7721-.1116-.4406-.2153-.8755-.33-1.3184-.024.2792-.0473.5512-.0711.8291a3.5914,3.5914,0,0,0-.6929-.5774c-1.1675,5.3579-1.5274,7.8492-.031,9.0144l-.0273.3182H730.806c-1.1381-11.6251-3.7564-22.9949-6.4916-34.3445l11.2948-21.6871c-6.163,2.9015-9.7888,7.3224-14.1963,10.7165-.4919-1.3842-.5787-2.9806-2.2129-4.4948v8.4262c-8.9212,9.4885-13.5542,21.3965-17.0727,33.4436a48.8836,48.8836,0,0,0-1.57,7.94h-6.3658a3.7687,3.7687,0,0,0,.3-2.68,266.837,266.837,0,0,0-6.0227-30.873c-.9107,10.615-1.7452,20.3413-2.58,30.0677-1.3722-4.8268.1079-9.8039-1.56-14.534-.6909-13.7117-3.7484-27.0151-6.9485-40.2939l11.2948-21.6871c-6.163,2.9015-9.7888,7.3224-14.1962,10.7165-.492-1.3842-.5788-2.98-2.213-4.4948V659.79c-8.9212,9.4885-13.5542,21.3965-17.0727,33.4436-2.3781,8.1431-2.4292,17.0613-1.24,25.7252.5,3.6385.7358,5.3613,1.8211,6.1833H610.168a4.6881,4.6881,0,0,0,1.048-2.4421c2.5364-13.5988,5.2258-27.169,7.8621-40.7493l-.4162-.3576c-5.719,13.6335-11.438,27.267-17.3515,41.3638-2.853-5.626-4.25-11.7724-10.1367-14.9111-.7559,2.2949.514,4.0222.9255,5.87.8612,3.8665.2651,9.2507,2.9527,11.2264H592.609c.3053-.6571.1389-1.7026-.46-3.2114-5.2154-13.1382-11.86-25.4019-21.274-36.0374a42.0067,42.0067,0,0,0-12.6317-10.3211l4.4965,7.968-.078-.0741c-.0085.0322-.0158.0645-.0242.0967.0265-.0055.0523-.0123.0791-.0174a118.3425,118.3425,0,0,1,18.14,37.9879,6.991,6.991,0,0,0,1.856,3.6088H566.2264c-.9415-2.0009-1.6372-3.3951-2.226-4.83-1.704-4.1536-4.8979-7.652-5.4176-12.3239,1.5156-8.1145,1.9523-16.4084,4.0547-24.4253a2.36,2.36,0,0,0-1.8286,1.2854c-2.8594,6.2-5.9559,12.3122-7.1437,19.1365.0131.001.0241.0045.0371.0057a27.7847,27.7847,0,0,0-2.9687,10.5958c-1.132-.5548-1.3834-1.72-1.8518-2.7193q-5.778-12.3332-11.5294-24.6786-3.2663-7.005-6.5126-14.0194l-.8784.3169q1.2069,8.399,2.4139,16.7978-4.0784,9.2919-8.1569,18.5838c-1.9251,3.5646-5.2624,5.89-7.8125,8.9066-1.8679-.5357-1.6214-2.21-1.95-3.589-2.6539-11.1445-4.5957-22.4257-6.4245-33.7559-.79,14.38-1.4266,28.7212-.5816,43.0811a3.5537,3.5537,0,0,0,.3927,1.6319H504.56c.1816-.0794.3618-.156.552-.2513-11.0565-3.4839-13.2369-13.5288-17.8843-21.6329l-1.1954.4188c0,4.9942-.0175,9.9886.0041,14.9827.0152,3.5195.0295,5.456.7331,6.4827H474.3424a22.6119,22.6119,0,0,0,.5786-3.3776c-1.2579.125-1.6439,1.7382-2.8124.7434-1.7905-4.8039.8335-8.293,4.5577-11.7736-3.2633-.1038-4.1906,2.5781-6.5319,2.6179-2.3246-5.6222-4.7114-11.129-8.3345-15.9676-.979-1.3073-.65-2.791-.753-4.2242l2.0772-15.916a42.353,42.353,0,0,0-5.7652,10.2291c-1.0559,2.62-2.1788,3.7193-5.2575.8893,3.83,4.2616,1.1528,7.45-.0493,10.8851-1.48,4.2284-4.7207,7.6735-5.2192,12.3386-.1713,1.6034-.7866,3.4188-3.1388,1.9455q-.5519-1.3669-1.1036-2.7339c.5534-6.6,1.2558-13.1981.5989-20.8546-3.4293,6.77-3.8474,13.4728-7.3821,18.9741-3.2154-9.3107-6.9556-18.4117-10.9473-27.4123-.4915-1.1859-.4544-2.6579-1.8956-3.4147.2668,1.8229-.5422,3.7593.9126,5.3362l5.3709,33.295-1.245,1.72c-.1559-1.0986-1.6339-.9182-1.9692-1.8433a47.3392,47.3392,0,0,0-5.1638-19.5685,13.5226,13.5226,0,0,1-1.4219-7.0161c.1031-6.43.0346-12.862.0346-19.2933l-1.28-.1721q-1.96,6.8943-3.9193,13.7887c-4.4582-2.5845-7.0885-7.619-12.7484-9.5753l9.6409,17.7771a80.2889,80.2889,0,0,1-5.9823,16.9547c-2.3827-.3667-.7-3.4434-3.289-3.5181-.5532,3.2941-1.52,6.454-4.34,8.6222-2.96-.4761-1.7608-2.4885-1.4763-4.1034,1.3128-7.4517,2.8873-14.87,2.3462-22.6471-2.4035,5.4806-4.8071,10.9612-7.6635,17.4746-1.2214-5.4135-2.0293-9.6873-3.1974-13.86a6.9359,6.9359,0,0,1,.5047-5.1291,60.2729,60.2729,0,0,0,5.9742-11.1485c-4.1439,1.276-6.1176,4.5027-9.15,6.1861-.2752-.8313-.3562-1.798-1.6615-2.1413.1839,1.3432.3537,2.5828.5233,3.8223-7.779,9.783-11.7981,21.4089-16.1155,33.3824l-3.3945-5.7352q-1.3872-13.1669-2.7745-26.3337a64.4105,64.4105,0,0,0,7.1021-9.6592c-3.2923.9716-5.2389,2.63-7.3395,4.0054-2.655-1.2047-1.652,1.9452-2.8895,2.4278-9.581,7.3108-16.3368,16.8461-21.6587,27.5106l-1.0069-.9531a152.7644,152.7644,0,0,0,5.703-34.3608c-6.6407,11.3533-11.735,23.4122-17.1789,35.2066-1.8325-.4031-1.805-2.7557-4.0085-2.918l1.698,6.3328a22.4208,22.4208,0,0,1-4.47,12.4194c-.9553-1.4541-.7566-3.6285-2.6724-4.8389a45.1993,45.1993,0,0,0-.9877,5.6043H274.4585a265.2482,265.2482,0,0,0-5.8715-29.8243c-.9032,10.5265-1.7313,20.179-2.5588,29.8243h-.0814c-1.2568-4.7507.14-9.64-1.5-14.2907-.6908-13.7116-3.7483-27.015-6.9484-40.2938,3.6189-6.9486,7.2377-13.8972,11.2948-21.6871-6.163,2.9015-9.7888,7.3224-14.1963,10.7165-.4919-1.3842-.5787-2.9805-2.2129-4.4948v8.4262c-8.9212,9.4885-13.5542,21.3965-17.0727,33.4436-2.3782,8.1431-2.4292,17.0613-1.24,25.7252.13.9443.2413,1.75.354,2.4549H191.5781c2.4655-13.1682,5.0658-26.3112,7.6189-39.463l-.4162-.3576c-5.5088,13.1322-11.0217,26.2743-16.7041,39.8206h-1.39c-2.3983-5.1747-4.0418-10.5142-9.3938-13.3679-.7559,2.2949.514,4.0222.9255,5.87.514,2.3081.511,5.1547.9932,7.4981H172.058c-5.184-12.9423-11.774-25.025-21.0643-35.52a42.0087,42.0087,0,0,0-12.6316-10.321l4.4965,7.968-.078-.0741c-.0086.0322-.0159.0645-.0243.0967.0266-.0056.0524-.0123.0792-.0175a118.38,118.38,0,0,1,18.106,37.8684H144.5943c-.1664-.3713-.3248-.7356-.475-1.1018-1.704-4.1535-4.8979-7.6519-5.4176-12.3238,1.5156-8.1145,1.9523-16.4085,4.0546-24.4253a2.36,2.36,0,0,0-1.8285,1.2854c-2.8594,6.2-5.9559,12.3121-7.1437,19.1365.0131.001.0241.0045.0371.0057a27.7811,27.7811,0,0,0-2.9687,10.5958c-1.132-.5548-1.3835-1.72-1.8518-2.7193q-5.778-12.3331-11.5294-24.6786-3.2664-7.0052-6.5126-14.0194l-.8784.3169q1.2069,8.399,2.4139,16.7978-4.0785,9.2918-8.1569,18.5838c-1.9251,3.5646-5.2624,5.89-7.8125,8.9066-1.8679-.5357-1.6215-2.21-1.95-3.589-2.6539-11.1445-4.5958-22.4257-6.4245-33.7559-.7511,13.6805-1.3486,27.3252-.679,40.9846H78.7283c-5.7133-4.6666-7.8354-11.9717-11.3817-18.1558l-1.1954.4188c0,4.9942-.0175,9.9886.0041,14.9827.0046,1.0576.01,1.9641.0332,2.7543H.2v46h1366v-46ZM383.0507,718.5c-.0151.015-.0262.0307-.0416.0456-.0021-.0254-.002-.0509-.004-.0764C383.0207,718.4794,383.0349,718.49,383.0507,718.5Zm-24.221-7.734q-.3291.0685-.6536.1562c-.034-.2031-.0752-.4162-.13-.6477A6.0047,6.0047,0,0,1,358.83,710.7661Zm-.9959-10.3578c.0086.0487.0172.0973.0255.146-.0146.0781-.0237.158-.0408.2353C357.823,700.6641,357.8284,700.536,357.8338,700.4083ZM333.6466,715.66c.0275.1456.0546.291.0905.4389l.2617-.6595c.4535-.0474-.3392.6465-.38.9531C333.6183,716.1406,333.629,715.8975,333.6466,715.66Zm910.9984-36.2606a1.2464,1.2464,0,0,0-.1128.09C1244.4563,679.4325,1244.5388,679.3821,1244.645,679.3989Zm1.1612,18.042q2.0412,7.6105,4.0869,15.2385a6.7494,6.7494,0,0,1-.8313,1.284c-.51-.3679-1.277-.4867-1.5081-1.1242a44.8134,44.8134,0,0,0-3.1161-14.8947A3.7607,3.7607,0,0,1,1245.8062,697.4409ZM1272.81,677.5l.5691,1.0085-.0782-.0741c-.0085.0322-.0158.0645-.0241.0967.0265-.0056.0522-.0123.0791-.0175q2.4173,3.4186,4.601,6.954c-.8964,1.1671-2.0991,1.19-4.3352-.8649,3.83,4.2616,1.1529,7.45-.0493,10.8851-.9081,2.5946-2.4774,4.8949-3.671,7.3623a13.1263,13.1263,0,0,1-.6793-2.8937C1270.6138,692.5039,1271.1113,684.9023,1272.81,677.5Zm-29.7954,4.7519q-1.0233,2.3308-2.0462,4.6619c-.0016-.2191-.0035-.4381,0-.66.0962-5.9929.0447-11.9882.0371-17.9827Zm-25.4068,24.4828c.0442-.2508.09-.5016.1348-.7524.0264,1.4846.0591,2.9694.1125,4.4543C1216.5328,709.6428,1217.3746,708.0565,1217.6074,706.7351Zm-37.2577.271q-.3293.0686-.6535.1562c-.0341-.2031-.0754-.4162-.13-.6477A6.0154,6.0154,0,0,1,1180.35,707.0061Zm-.9959-10.3578.0255.1461c-.0146.078-.0238.1579-.0407.2352C1179.343,696.9041,1179.3484,696.776,1179.3538,696.6483ZM1155.1665,711.9c.0276.1455.0547.2911.0906.4389q.1306-.33.2617-.6595c.4536-.0474-.3392.6465-.38.9531C1155.1384,712.3807,1155.1489,712.1375,1155.1665,711.9Zm110.9452,10.9174a4.759,4.759,0,0,1,.963.0709c.9607.4309,1.0873,1.5,1.6243,2.2546h-3.5979A4.4143,4.4143,0,0,0,1266.1117,722.8169Zm-212.0189-5.5922a6.9367,6.9367,0,0,1,.5046-5.1292c.1072-.1726.2153-.3451.3229-.5176.114,2.4548.3367,4.912.6713,7.35.5059,3.6861.7419,5.406,1.8645,6.2149h-1.4671C1055.3748,722.3144,1054.7993,719.7489,1054.0928,717.2247ZM935.645,687.3989a1.2464,1.2464,0,0,0-.1128.09C935.4564,687.4325,935.5388,687.3821,935.645,687.3989Zm-5.1832,32.4447a45.3613,45.3613,0,0,0,2.52-9.8249c.9864-1.671,1.0306-4.0888,3.824-4.5778q2.0412,7.6105,4.0869,15.2385c-.721,1.5444-2.3313,2.601-2.6664,4.463H927.8961C928.887,724.3454,929.4478,722.7747,930.4618,719.8436Zm-29.4611,5.2988h-3.2275a7.83,7.83,0,0,0,.3607-2.393A13.9819,13.9819,0,0,0,901.0007,725.1424Zm-36.5279-2.2939a4.7518,4.7518,0,0,1,.963.0709c.9472.4249,1.0831,1.47,1.6013,2.223h-3.55A4.4507,4.4507,0,0,0,864.4728,722.8485Zm-61.541-8.0768c-.0151.015-.0262.0307-.0415.0456-.0022-.0254-.002-.0509-.004-.0764C802.9018,714.751,802.916,714.7617,802.9318,714.7717Zm-24.2209-7.734q-.3293.0686-.6536.1562c-.034-.2031-.0752-.4162-.13-.6477A6.0338,6.0338,0,0,1,778.7109,707.0377Zm-.996-10.3578c.0086.0487.0172.0973.0255.146-.0145.0782-.0237.158-.0408.2353C777.7041,696.9357,777.71,696.8076,777.7149,696.68Zm-24.1872,15.2512c.0275.1456.0546.291.0905.439q.1308-.33.2617-.66c.4535-.0474-.3392.6465-.38.9531C753.5,712.4123,753.51,712.1691,753.5277,711.9311ZM534.0061,687.4305a1.259,1.259,0,0,0-.1127.09C533.8174,687.4641,533.9,687.4138,534.0061,687.4305Zm-5.1832,32.4447a45.3619,45.3619,0,0,0,2.52-9.8248c.9864-1.6711,1.03-4.0889,3.824-4.578l4.087,15.2386c-.717,1.5358-2.3139,2.5889-2.6614,4.4314H526.2988C527.2645,724.335,527.8228,722.7661,528.8229,719.8752ZM496.495,722.781a14.2915,14.2915,0,0,0,2.8124,2.3614h-3.154A8.3747,8.3747,0,0,0,496.495,722.781Zm-382.37-31.6221a1.2575,1.2575,0,0,0-.1126.09C113.9363,691.1925,114.0188,691.1422,114.1249,691.1589Zm-5.1831,32.4447a45.3685,45.3685,0,0,0,2.52-9.8249c.9863-1.671,1.0305-4.0888,3.824-4.5779l4.087,15.2386a5.2389,5.2389,0,0,1-.4085.703H108.4014C108.57,724.6718,108.7454,724.1714,108.9418,723.6036Z"/></g></g></svg>