<svg id="visual" viewBox="0 0 900 100" width="900" height="100" xmlns="http://www.w3.org/2000/svg" xmlns:xlink="http://www.w3.org/1999/xlink" version="1.1"><path d="M0 36L9.3 37.7C18.7 39.3 37.3 42.7 56.2 43.2C75 43.7 94 41.3 112.8 40.8C131.7 40.3 150.3 41.7 169 43C187.7 44.3 206.3 45.7 225 42.7C243.7 39.7 262.3 32.3 281.2 29C300 25.7 319 26.3 337.8 26.2C356.7 26 375.3 25 394 24.7C412.7 24.3 431.3 24.7 450 24C468.7 23.3 487.3 21.7 506.2 21.7C525 21.7 544 23.3 562.8 27.7C581.7 32 600.3 39 619 37.5C637.7 36 656.3 26 675 25.8C693.7 25.7 712.3 35.3 731.2 36.2C750 37 769 29 787.8 24.7C806.7 20.3 825.3 19.7 844 23.5C862.7 27.3 881.3 35.7 890.7 39.8L900 44L900 101L890.7 101C881.3 101 862.7 101 844 101C825.3 101 806.7 101 787.8 101C769 101 750 101 731.2 101C712.3 101 693.7 101 675 101C656.3 101 637.7 101 619 101C600.3 101 581.7 101 562.8 101C544 101 525 101 506.2 101C487.3 101 468.7 101 450 101C431.3 101 412.7 101 394 101C375.3 101 356.7 101 337.8 101C319 101 300 101 281.2 101C262.3 101 243.7 101 225 101C206.3 101 187.7 101 169 101C150.3 101 131.7 101 112.8 101C94 101 75 101 56.2 101C37.3 101 18.7 101 9.3 101L0 101Z" fill="#ffffff"></path><path d="M0 41L9.3 43.2C18.7 45.3 37.3 49.7 56.2 51.3C75 53 94 52 112.8 49.3C131.7 46.7 150.3 42.3 169 42.2C187.7 42 206.3 46 225 48.5C243.7 51 262.3 52 281.2 52.7C300 53.3 319 53.7 337.8 54.2C356.7 54.7 375.3 55.3 394 53.5C412.7 51.7 431.3 47.3 450 43.3C468.7 39.3 487.3 35.7 506.2 37.5C525 39.3 544 46.7 562.8 48.2C581.7 49.7 600.3 45.3 619 43C637.7 40.7 656.3 40.3 675 41C693.7 41.7 712.3 43.3 731.2 41.8C750 40.3 769 35.7 787.8 35.3C806.7 35 825.3 39 844 38.5C862.7 38 881.3 33 890.7 30.5L900 28L900 101L890.7 101C881.3 101 862.7 101 844 101C825.3 101 806.7 101 787.8 101C769 101 750 101 731.2 101C712.3 101 693.7 101 675 101C656.3 101 637.7 101 619 101C600.3 101 581.7 101 562.8 101C544 101 525 101 506.2 101C487.3 101 468.7 101 450 101C431.3 101 412.7 101 394 101C375.3 101 356.7 101 337.8 101C319 101 300 101 281.2 101C262.3 101 243.7 101 225 101C206.3 101 187.7 101 169 101C150.3 101 131.7 101 112.8 101C94 101 75 101 56.2 101C37.3 101 18.7 101 9.3 101L0 101Z" fill="#ffffff"></path><path d="M0 46L9.3 46C18.7 46 37.3 46 56.2 46.8C75 47.7 94 49.3 112.8 50C131.7 50.7 150.3 50.3 169 52.3C187.7 54.3 206.3 58.7 225 59.3C243.7 60 262.3 57 281.2 56C300 55 319 56 337.8 53.8C356.7 51.7 375.3 46.3 394 44.8C412.7 43.3 431.3 45.7 450 46.3C468.7 47 487.3 46 506.2 47.3C525 48.7 544 52.3 562.8 52C581.7 51.7 600.3 47.3 619 47C637.7 46.7 656.3 50.3 675 51.8C693.7 53.3 712.3 52.7 731.2 50.5C750 48.3 769 44.7 787.8 46C806.7 47.3 825.3 53.7 844 57.2C862.7 60.7 881.3 61.3 890.7 61.7L900 62L900 101L890.7 101C881.3 101 862.7 101 844 101C825.3 101 806.7 101 787.8 101C769 101 750 101 731.2 101C712.3 101 693.7 101 675 101C656.3 101 637.7 101 619 101C600.3 101 581.7 101 562.8 101C544 101 525 101 506.2 101C487.3 101 468.7 101 450 101C431.3 101 412.7 101 394 101C375.3 101 356.7 101 337.8 101C319 101 300 101 281.2 101C262.3 101 243.7 101 225 101C206.3 101 187.7 101 169 101C150.3 101 131.7 101 112.8 101C94 101 75 101 56.2 101C37.3 101 18.7 101 9.3 101L0 101Z" fill="#ffffff"></path><path d="M0 58L9.3 57.3C18.7 56.7 37.3 55.3 56.2 55.3C75 55.3 94 56.7 112.8 57.7C131.7 58.7 150.3 59.3 169 60.2C187.7 61 206.3 62 225 62C243.7 62 262.3 61 281.2 62C300 63 319 66 337.8 65.3C356.7 64.7 375.3 60.3 394 58C412.7 55.7 431.3 55.3 450 54.8C468.7 54.3 487.3 53.7 506.2 55C525 56.3 544 59.7 562.8 63C581.7 66.3 600.3 69.7 619 68.7C637.7 67.7 656.3 62.3 675 61.5C693.7 60.7 712.3 64.3 731.2 66.3C750 68.3 769 68.7 787.8 68.5C806.7 68.3 825.3 67.7 844 68.3C862.7 69 881.3 71 890.7 72L900 73L900 101L890.7 101C881.3 101 862.7 101 844 101C825.3 101 806.7 101 787.8 101C769 101 750 101 731.2 101C712.3 101 693.7 101 675 101C656.3 101 637.7 101 619 101C600.3 101 581.7 101 562.8 101C544 101 525 101 506.2 101C487.3 101 468.7 101 450 101C431.3 101 412.7 101 394 101C375.3 101 356.7 101 337.8 101C319 101 300 101 281.2 101C262.3 101 243.7 101 225 101C206.3 101 187.7 101 169 101C150.3 101 131.7 101 112.8 101C94 101 75 101 56.2 101C37.3 101 18.7 101 9.3 101L0 101Z" fill="#ffffff"></path><path d="M0 80L9.3 77.8C18.7 75.7 37.3 71.3 56.2 70.8C75 70.3 94 73.7 112.8 75.5C131.7 77.3 150.3 77.7 169 75.7C187.7 73.7 206.3 69.3 225 68.8C243.7 68.3 262.3 71.7 281.2 73.2C300 74.7 319 74.3 337.8 73.3C356.7 72.3 375.3 70.7 394 71.3C412.7 72 431.3 75 450 74.3C468.7 73.7 487.3 69.3 506.2 67.5C525 65.7 544 66.3 562.8 68.5C581.7 70.7 600.3 74.3 619 75.5C637.7 76.7 656.3 75.3 675 75C693.7 74.7 712.3 75.3 731.2 75.2C750 75 769 74 787.8 73.5C806.7 73 825.3 73 844 72.7C862.7 72.3 881.3 71.7 890.7 71.3L900 71L900 101L890.7 101C881.3 101 862.7 101 844 101C825.3 101 806.7 101 787.8 101C769 101 750 101 731.2 101C712.3 101 693.7 101 675 101C656.3 101 637.7 101 619 101C600.3 101 581.7 101 562.8 101C544 101 525 101 506.2 101C487.3 101 468.7 101 450 101C431.3 101 412.7 101 394 101C375.3 101 356.7 101 337.8 101C319 101 300 101 281.2 101C262.3 101 243.7 101 225 101C206.3 101 187.7 101 169 101C150.3 101 131.7 101 112.8 101C94 101 75 101 56.2 101C37.3 101 18.7 101 9.3 101L0 101Z" fill="#ffffff"></path><path d="M0 83L9.3 82.2C18.7 81.3 37.3 79.7 56.2 80.8C75 82 94 86 112.8 86C131.7 86 150.3 82 169 80.2C187.7 78.3 206.3 78.7 225 78.7C243.7 78.7 262.3 78.3 281.2 79.7C300 81 319 84 337.8 85.5C356.7 87 375.3 87 394 86.3C412.7 85.7 431.3 84.3 450 83.5C468.7 82.7 487.3 82.3 506.2 82.5C525 82.7 544 83.3 562.8 84.7C581.7 86 600.3 88 619 88.7C637.7 89.3 656.3 88.7 675 88.5C693.7 88.3 712.3 88.7 731.2 87.7C750 86.7 769 84.3 787.8 83C806.7 81.7 825.3 81.3 844 82.3C862.7 83.3 881.3 85.7 890.7 86.8L900 88L900 101L890.7 101C881.3 101 862.7 101 844 101C825.3 101 806.7 101 787.8 101C769 101 750 101 731.2 101C712.3 101 693.7 101 675 101C656.3 101 637.7 101 619 101C600.3 101 581.7 101 562.8 101C544 101 525 101 506.2 101C487.3 101 468.7 101 450 101C431.3 101 412.7 101 394 101C375.3 101 356.7 101 337.8 101C319 101 300 101 281.2 101C262.3 101 243.7 101 225 101C206.3 101 187.7 101 169 101C150.3 101 131.7 101 112.8 101C94 101 75 101 56.2 101C37.3 101 18.7 101 9.3 101L0 101Z" fill="#ffffff"></path></svg>