<svg xmlns="http://www.w3.org/2000/svg" xmlns:xlink="http://www.w3.org/1999/xlink" viewBox="0 0 1366 768"><defs><style>.cls-1{fill:none;}.cls-2{clip-path:url(#clip-path);}.cls-3,.cls-4{fill:#fff;}.cls-4{opacity:0.51;}</style><clipPath id="clip-path"><rect class="cls-1" width="1366" height="768"/></clipPath></defs><g id="Capa_2" data-name="Capa 2"><g class="cls-2"><path d="M943,226c29.6392-49.5207,73.0576,32.2286,100.52-16.4444,0,0,.48,32.4444-32.52,34.4444,105.1384,34.612,10.2247,88.18,41.8722,132.9992C1052.88,377,1074,392,1086,372c0,0-9,30-32,24,79.59,17.2178.1061,82.7648,54,88,0,0-17,12-21,9,32.7536,51.4906-28.0278,18.9156-43,60.9968C1044,554,1112,673,1134,674l-43,25c-52.6286,32.8722-96.717,7.06-164.1215-.008C923,699,809,686,809,686l-36.5-30.5s87-67,94-131c-1.2644,11.3426-98.931,50.4195-118.0034,3.0023C748.5,527.5,708.5,546.1,691,530.8c0,0,42.5,3.7,36.5-27.3,0,0-52-13-26-81,15.5734-65.0639,109.33-45.0978,89.0044-105.9963C790.5,316.5,772.5,293.5,777.5,273.5c10.97,19.3276,36.0561,21.3664,58.0542,5.0848,12.0268-8.9015,19.1841-22.7436,20.7575-37.6233C859.6677,209.2256,903.7987,165.6472,943,226Z"/><path class="cls-3" d="M900,254a24.4238,24.4238,0,0,0-.11,10.304,38.3443,38.3443,0,0,0,3.245,9.8178,53.6789,53.6789,0,0,0,5.3893,8.8361c1.0123,1.4014,2.135,2.7165,3.24,4.0444,1.17,1.2714,2.2974,2.5828,3.5435,3.7821a107.9477,107.9477,0,0,0,16.0092,13.131,174.1142,174.1142,0,0,0,17.8154,10.6029,34.5064,34.5064,0,0,1,14.7339,14.6348,50.8372,50.8372,0,0,1,5.87,20.044,42.33,42.33,0,0,1-.2567,10.5278,23.6909,23.6909,0,0,1-3.83,9.8952,19.9427,19.9427,0,0,1-8.273,6.7045,32.3036,32.3036,0,0,1-10.3165,2.4462l.0627-.0074a108.494,108.494,0,0,0-14.7934,3.8917,107.0334,107.0334,0,0,0-14.1337,5.8624,75.0575,75.0575,0,0,0-12.8649,8.16,50.4339,50.4339,0,0,0-10.3648,11.0011,38.9215,38.9215,0,0,0-5.929,13.7787,44.2965,44.2965,0,0,0-.467,15.04,62.4807,62.4807,0,0,0,1.5135,7.4393l.5291,1.8177.2677.9076.3185.8767q.6684,1.79,1.4012,3.56a73.8925,73.8925,0,0,0,3.2257,6.8976,26.5772,26.5772,0,0,0,1.97,3.1533,9.05,9.05,0,0,0,1.1519,1.3,1.96,1.96,0,0,0,1.0531.5867l-.8457,1.4246a21.7325,21.7325,0,0,1-1.7219-4.5926,17.6017,17.6017,0,0,1-.5535-4.9017,11.7733,11.7733,0,0,1,1.24-4.8965,11.3084,11.3084,0,0,1,3.29-3.8583l.1352-.1037.1521-.0454a29.5084,29.5084,0,0,1,6.5623-1.1722,19.7518,19.7518,0,0,1,6.7127.6281,11.45,11.45,0,0,1,5.8133,3.7621,13.2927,13.2927,0,0,1,2.6174,6.3475,34.3872,34.3872,0,0,1-1.1247,13.1194,89.3378,89.3378,0,0,1-4.181,12.3177,30.3909,30.3909,0,0,1-7.7286,10.6632,36.2669,36.2669,0,0,1-5.3471,3.8378c-1.8453,1.1384-3.74,2.2036-5.6871,3.1756a38.0569,38.0569,0,0,1-12.4882,4.024,16.889,16.889,0,0,1-6.7252-.5261,13.1922,13.1922,0,0,1-3.1382-1.4239,14.3428,14.3428,0,0,1-2.6395-2.2089l1.4584-1.0076a34.0178,34.0178,0,0,0,5.73,7.7334,23.63,23.63,0,0,0,7.8436,5.393,17.3369,17.3369,0,0,0,9.2986,1.0434,24.5922,24.5922,0,0,0,8.8807-3.4912l1.2734-.7833.0221,1.5268a30.5838,30.5838,0,0,0,3.8495,14.7018,20.6723,20.6723,0,0,0,11.5674,9.4278,34.7182,34.7182,0,0,0,15.3306,1.03A76.776,76.776,0,0,0,954.7875,530.4l1.78-.6175-1.0514,1.59A23.3869,23.3869,0,0,0,952.7,550.497a28.5712,28.5712,0,0,0,1.8758,4.64,31.58,31.58,0,0,0,2.7025,4.2387,42.7719,42.7719,0,0,0,7.0287,7.2485l-.7825.4758a25.563,25.563,0,0,1-.2859-6.7458,15.6685,15.6685,0,0,1,1.9395-6.48,10.1528,10.1528,0,0,1,5.16-4.3615,16.3992,16.3992,0,0,1,6.68-.8317l.0387.0025.0371.0112c4.0446,1.2283,8.1748,2.2369,12.3295,3.0669a97.5671,97.5671,0,0,0,12.59,1.7226,42.5112,42.5112,0,0,0,12.6329-.7976,16.0643,16.0643,0,0,0,5.7547-2.5789A9.8063,9.8063,0,0,0,1024,545a9.8471,9.8471,0,0,1-3.55,5.1716,16.1858,16.1858,0,0,1-5.7631,2.67,42.7411,42.7411,0,0,1-12.6911.9618,97.9834,97.9834,0,0,1-12.6615-1.571c-4.1845-.782-8.3294-1.7385-12.4282-2.9272l.0754.0136a15.7376,15.7376,0,0,0-6.38.8667,9.38,9.38,0,0,0-4.7278,4.0957,14.8366,14.8366,0,0,0-1.75,6.1515,24.7046,24.7046,0,0,0,.3516,6.4673l.247,1.3056-1.03-.83a42.7665,42.7665,0,0,1-7.2561-7.3634,32.647,32.647,0,0,1-2.827-4.3678,29.6754,29.6754,0,0,1-1.9908-4.8278,24.5765,24.5765,0,0,1,2.8656-20.1891l.7281.9721a78.0736,78.0736,0,0,1-15.4353,3.9539,36.1211,36.1211,0,0,1-15.9823-.983,22.2228,22.2228,0,0,1-12.482-10.033,29.4623,29.4623,0,0,1-3.0747-7.5078,32.643,32.643,0,0,1-1.0866-8.0514l1.2953.7434a26.2843,26.2843,0,0,1-9.5014,3.7467,19.0832,19.0832,0,0,1-10.2192-1.1231,25.3706,25.3706,0,0,1-8.4481-5.7654,35.6547,35.6547,0,0,1-6.0786-8.1795l-3.1365-5.8175,4.5949,4.81a12.5705,12.5705,0,0,0,2.2828,1.9025,11.3909,11.3909,0,0,0,2.7028,1.2169,15.0933,15.0933,0,0,0,6.0107.4436,36.31,36.31,0,0,0,11.8543-3.87c1.8864-.947,3.73-1.9891,5.5312-3.106a34.379,34.379,0,0,0,5.0812-3.6587,28.4949,28.4949,0,0,0,7.2222-10.0143,87.5212,87.5212,0,0,0,4.0513-12.0276c.9923-4.0766,1.6644-8.3173,1.0613-12.3447a11.3326,11.3326,0,0,0-2.2173-5.4085,9.451,9.451,0,0,0-4.83-3.0883,17.7971,17.7971,0,0,0-6.0294-.5659,27.6971,27.6971,0,0,0-6.0752,1.065l.2869-.1489a9.3364,9.3364,0,0,0-2.7287,3.1764,9.8183,9.8183,0,0,0-1.0368,4.0847,15.6812,15.6812,0,0,0,.4864,4.3488,19.9861,19.9861,0,0,0,1.5339,4.1406l.7632,1.493L900,464.9634a3.6582,3.6582,0,0,1-2.3358-1.0819,10.8816,10.8816,0,0,1-1.4045-1.5829,28.3841,28.3841,0,0,1-2.1118-3.391,75.68,75.68,0,0,1-3.2966-7.0881q-.74-1.8007-1.4173-3.6257l-.3377-.9379-.2769-.9439-.5453-1.8891A64.3332,64.3332,0,0,1,886.73,436.74a46.1334,46.1334,0,0,1,.5278-15.668,40.7294,40.7294,0,0,1,6.2317-14.3958,52.1885,52.1885,0,0,1,10.751-11.366,76.7715,76.7715,0,0,1,13.182-8.3211,104.3857,104.3857,0,0,1,14.384-5.904,109.9075,109.9075,0,0,1,15.0711-3.8487l.0259-.0046.0372-.0029a30.8173,30.8173,0,0,0,9.8387-2.2519,18.4941,18.4941,0,0,0,7.7264-6.1667,22.3331,22.3331,0,0,0,3.6636-9.3051,41.0561,41.0561,0,0,0,.3159-10.2007,49.6513,49.6513,0,0,0-5.5942-19.62A33.7737,33.7737,0,0,0,948.6918,315.35a174.9506,174.9506,0,0,1-17.777-10.8544,108.5325,108.5325,0,0,1-15.9433-13.3816c-1.2385-1.2195-2.3583-2.552-3.52-3.843-1.0966-1.3484-2.21-2.6829-3.2121-4.1039a53.9765,53.9765,0,0,1-5.3178-8.9448,38.52,38.52,0,0,1-3.148-9.8977A24.4808,24.4808,0,0,1,900,254Z"/><path class="cls-3" d="M904.5161,386.4521a57.53,57.53,0,0,1-17.5545-6.7312A58.8559,58.8559,0,0,1,858.171,332.937a58.9817,58.9817,0,0,1,9.5875-36.25,59.9794,59.9794,0,0,1,12.825-13.9,57.5768,57.5768,0,0,1,16.5173-8.9785,60.63,60.63,0,0,0-15.9,9.74A59.0736,59.0736,0,0,0,869.0516,297.52a60.1636,60.1636,0,0,0-7.2766,16.9467,60.0889,60.0889,0,0,0,2.4049,36.3005,60.4425,60.4425,0,0,0,9.4242,15.8527,58.9311,58.9311,0,0,0,13.867,12.27A60.5582,60.5582,0,0,0,904.5161,386.4521Z"/><path class="cls-3" d="M879,428c-2.5937,1.1944-5.2266,2.2845-7.8408,3.4246-2.6253,1.11-5.2544,2.21-7.8985,3.27-5.2773,2.1495-10.5886,4.2082-15.9146,6.2276l-.0473-1.8614a31.8261,31.8261,0,0,1,4.7051,2.0441,45.1393,45.1393,0,0,1,4.3651,2.6013,37.3487,37.3487,0,0,1,7.5273,6.7981c.5167.6735,1.1082,1.2857,1.5593,2.0074l1.4028,2.1193c.43.7284.7814,1.504,1.1732,2.251.1859.3791.3929.7474.56,1.1342l.4425,1.187c.2818.7947.602,1.5747.82,2.3849l.5585,2.4541a14.2788,14.2788,0,0,1,.373,2.4737L871,469a35.22,35.22,0,0,0-2.9173-9.3892l-.5039-1.111c-.187-.3605-.4132-.7018-.6171-1.053-.4265-.6924-.8165-1.4043-1.268-2.076l-1.4429-1.956c-.461-.665-1.0623-1.2225-1.5841-1.8379a39.075,39.075,0,0,0-7.3727-6.2691,41.9476,41.9476,0,0,0-8.5926-4.3688l-2.5466-.9347,2.4993-.9269c5.3407-1.9806,10.6959-3.9219,16.0853-5.7723,2.6892-.94,5.3934-1.84,8.1014-2.73C873.56,429.7155,876.26,428.8056,879,428Z"/><path class="cls-3" d="M769,475a118.8922,118.8922,0,0,1,13.7016-11.8522c2.4159-1.8234,4.9173-3.5329,7.4578-5.1864,2.5549-1.6317,5.1766-3.1614,7.8435-4.6148,2.69-1.412,5.4392-2.7176,8.2513-3.8836a66.4613,66.4613,0,0,1,8.6726-2.8761A37.37,37.37,0,0,1,833,446a36.7407,36.7407,0,0,0-8.9567.16,50.7379,50.7379,0,0,0-8.6971,1.93,94.1172,94.1172,0,0,0-16.4037,7.0205,174.5071,174.5071,0,0,0-15.3414,9.3052q-3.7255,2.5185-7.3767,5.164C773.7673,471.3155,771.3867,473.1528,769,475Z"/><path class="cls-3" d="M806,381q-5.9021,7.5356-11.7084,15.1389-5.7737,7.6292-11.48,15.3031c-7.5779,10.2544-14.9223,20.6794-21.9347,31.3046-3.4826,5.3269-6.8514,10.7283-9.95,16.268-1.5168,2.784-3.0255,5.5765-4.3335,8.4484a55.5244,55.5244,0,0,0-3.3523,8.7618c-.1.3738-.2209.74-.304,1.12l-.2129,1.1523-.4275,2.3047a14.91,14.91,0,0,0-.2863,2.3166l-.1882,2.3252a27.1242,27.1242,0,0,0,1.16,9.12,19.7047,19.7047,0,0,0,4.6245,7.7851l.8044.8121.882.7289a19.6482,19.6482,0,0,0,1.8509,1.3452,18.603,18.603,0,0,0,4.0753,1.93l.0628.0191a44.85,44.85,0,0,0,8.2437,1.5243,67.0942,67.0942,0,0,0,8.4918.3267,90.72,90.72,0,0,0,16.9187-2.09l4.1624-.9894c1.3833-.3471,2.7393-.7967,4.1137-1.1831,2.7642-.7333,5.4234-1.7885,8.1231-2.7335,1.3611-.4465,2.6544-1.0623,3.9771-1.6074l3.9528-1.6793L821,495c-2.5248,1.3547-5.03,2.7591-7.58,4.0776l-3.9076,1.8121c-1.3092.59-2.59,1.2509-3.9409,1.7436-2.68,1.0371-5.3235,2.186-8.0828,3.0154-1.3713.436-2.7256.935-4.1171,1.3064l-4.1851,1.0831a92.0017,92.0017,0,0,1-17.1235,2.4584,68.6275,68.6275,0,0,1-8.69-.1626,42.2228,42.2228,0,0,1-8.6551-1.5186l.0625.019a21.1423,21.1423,0,0,1-13.5581-13.6967,28.9881,28.9881,0,0,1-1.3133-9.7529l.18-2.4454a16.1143,16.1143,0,0,1,.2842-2.4279l.4289-2.4027.2154-1.2015c.0848-.399.21-.7934.3132-1.19a51.8729,51.8729,0,0,1,3.4865-9.0835c1.3567-2.9263,2.9015-5.7413,4.4548-8.5481,3.1671-5.5769,6.5908-10.986,10.1242-16.3148,7.0531-10.6693,14.6861-20.9221,22.4635-31.0467q5.8279-7.5987,11.8842-15.016C797.7693,390.7552,801.829,385.83,806,381Z"/><path class="cls-3" d="M811,368a33.9178,33.9178,0,0,1,3.1165-15.0334,24.364,24.364,0,0,1,4.4123-6.5221,20.3665,20.3665,0,0,1,6.5335-4.5437,24.09,24.09,0,0,1,7.7213-1.7783l1.972-.05c.6555.0032,1.307.0718,1.96.1053a32.215,32.215,0,0,1,3.8708.503A50.8422,50.8422,0,0,1,855,346a76.8518,76.8518,0,0,0-14.6608-3.7781,35.767,35.767,0,0,0-7.4159-.2108,22.8433,22.8433,0,0,0-7.0644,1.7229,21.5346,21.5346,0,0,0-10.3564,9.937A42.8991,42.8991,0,0,0,811,368Z"/><path class="cls-3" d="M847,375.08a17.3958,17.3958,0,0,1,5.5226-2.106,16.2121,16.2121,0,0,1,6.0381-.1876,10.064,10.064,0,0,1,5.5572,2.7423A8.6274,8.6274,0,0,1,866.56,381a12.7639,12.7639,0,0,0-3.4725-4.2991,11.1935,11.1935,0,0,0-4.8651-1.9439,24.9048,24.9048,0,0,0-5.4978-.2414C850.8475,374.62,848.9527,374.8326,847,375.08Z"/><ellipse class="cls-3" cx="894.375" cy="310.5" rx="10.5" ry="6.375" transform="translate(305.0473 1051.4519) rotate(-70.6479)"/><path class="cls-4" d="M1366,647.24c-136.6017,0-136.6017-68-273.2033-68s-136.6017,68-273.2034,68-136.6013-68-273.2026-68c-136.5987,0-136.5987,68-273.1974,68-136.5966,0-136.5966-68-273.1933-68V768H1366Z"/><path class="cls-3" d="M1366,720.32c-227.6669,0-227.6669-90-455.3337-90s-227.6669,90-455.3338,90S227.6663,630.32,0,630.32V768H1366Z"/></g></g></svg>